HIERARCHY
ROOT Hips
{
  OFFSET -29.1822 61.6766 36.359
  CHANNELS 6 Xposition Yposition Zposition Zrotation Xrotation Yrotation
  JOINT RightUpLeg
  {
    OFFSET -8.9458 -8.66707 0.101652
    CHANNELS 3 Zrotation Xrotation Yrotation
    JOINT RightLeg
    {
      OFFSET 0 -44.4227 1.3727
      CHANNELS 3 Zrotation Xrotation Yrotation
      JOINT RightFoot
      {
        OFFSET 0.253549 -42.0924 -1.46059
        CHANNELS 3 Zrotation Xrotation Yrotation
        JOINT RightToes
        {
          OFFSET 0.04 -4.41509 8.4991
          CHANNELS 3 Zrotation Xrotation Yrotation
          End Site
          {
            OFFSET -0.08 -0.137448 9.77979
          }
        }
      }
    }
  }
  JOINT Spine
  {
    OFFSET 0 11.8905 0
    CHANNELS 3 Zrotation Xrotation Yrotation
    JOINT Spine1
    {
      OFFSET 0 25.6574 0.127663
      CHANNELS 3 Zrotation Xrotation Yrotation
      JOINT HEad
      {
        OFFSET 0 8.73416 0.011341
        CHANNELS 3 Zrotation Xrotation Yrotation
        End Site
        {
          OFFSET -0.29 12.7742 2.51395
        }
      }
      JOINT LeftShoulder1
      {
        OFFSET 8.99 -0.362252 -0.22
        CHANNELS 3 Zrotation Xrotation Yrotation
        JOINT LeftArm
        {
          OFFSET 10.2827 -0.00338 0.322123
          CHANNELS 3 Zrotation Xrotation Yrotation
          JOINT LeftForeArm
          {
            OFFSET 32.7669 0.099144 -1.42434
            CHANNELS 3 Zrotation Xrotation Yrotation
            JOINT LeftHand
            {
              OFFSET 27.5643 0.085362 1.02216
              CHANNELS 3 Zrotation Xrotation Yrotation
              End Site
              {
                OFFSET 16.7443 -0.6 1.50291
              }
            }
          }
        }
      }
      JOINT RightShoulder
      {
        OFFSET -8.99 -0.362252 -0.22
        CHANNELS 3 Zrotation Xrotation Yrotation
        JOINT RightArm
        {
          OFFSET -10.2827 -0.00338 0.322123
          CHANNELS 3 Zrotation Xrotation Yrotation
          JOINT RightForeArm
          {
            OFFSET -32.8971 0.099144 -1.42434
            CHANNELS 3 Zrotation Xrotation Yrotation
            JOINT RightHand
            {
              OFFSET -27.4921 0.085362 1.02216
              CHANNELS 3 Zrotation Xrotation Yrotation
              End Site
              {
                OFFSET -16.6312 -0.6 1.50291
              }
            }
          }
        }
      }
    }
  }
  JOINT LeftUpLeg
  {
    OFFSET 8.9458 -8.66707 0.101652
    CHANNELS 3 Zrotation Xrotation Yrotation
    JOINT LeftLeg
    {
      OFFSET 0 -44.4227 1.3727
      CHANNELS 3 Zrotation Xrotation Yrotation
      JOINT LeftFoot
      {
        OFFSET -0.253549 -42.0924 -1.46059
        CHANNELS 3 Zrotation Xrotation Yrotation
        JOINT LeftToes
        {
          OFFSET -0.04 -4.41509 8.4991
          CHANNELS 3 Zrotation Xrotation Yrotation
          End Site
          {
            OFFSET 0.08 -0.047448 9.77979
          }
        }
      }
    }
  }
}
MOTION
Frames:	10
Frame Time:	0.0166667
-23.4822 64.0227 38.4237 37.39 25.4739 129.665 -41.2372 -20.053 -1.96638 -14.4552 81.8075 2.83475 11.1889 -5.32887 2.83113 0.0462048 0.000533403 0.662642 3.80083 8.88236 -6.42778 -7.45396 2.94552 -1.36258 -16.8874 65.0614 38.7704 3.18055e-015 -6.36111e-015 -0 -88.8908 21.6971 -4.39793 0.846534 59.3257 -43.5188 -21.2962 17.6989 13.5092 -1.95588e-008 -1.64207e-006 -1.94768e-006 90.0709 20.4852 2.95264 1.69744 40.2466 61.5528 10.1122 18.1045 -1.56486 11.7875 -41.4326 -6.27082 -32.5257 66.2657 26.7893 43.3413 0.913962 -12.767 2.13393e-008 1.56021e-007 -4.87131e-009 
-23.5124 64.0291 38.4385 37.4119 25.4723 129.661 -41.2409 -20.0537 -2.00012 -14.477 81.77 2.86072 11.1671 -5.27891 2.8265 0.0462048 0.000533403 0.662642 3.79861 8.88284 -6.41251 -7.42323 2.9782 -1.3534 -16.9052 65.0836 38.6775 0 1.59028e-015 -0 -88.8628 21.6231 -4.44005 -0.0104048 59.1017 -42.7384 -21.3185 18.1139 13.5652 -1.95588e-008 -1.64207e-006 -1.94768e-006 89.9481 20.3699 3.06118 1.76183 39.9406 61.7954 11.1927 17.8482 -1.25906 11.7671 -41.2998 -6.23493 -32.3617 66.1908 26.6057 43.3734 0.959492 -12.7966 2.13393e-008 1.56021e-007 -4.87131e-009 
-23.5432 64.033 38.4557 37.4245 25.4703 129.659 -41.2525 -20.0714 -2.04179 -14.5196 81.7382 2.91111 11.1412 -5.22436 2.82104 0.0462048 0.000533403 0.662642 3.79697 8.88326 -6.39829 -7.39141 3.00867 -1.34697 -16.9426 65.1083 38.592 -1.59028e-015 0 -0 -88.8402 21.5162 -4.48695 -1.68496 58.5102 -41.1492 -21.2252 18.932 13.7281 -1.95588e-008 -1.64207e-006 -1.94768e-006 89.785 20.1618 3.1765 1.71685 39.8215 62.098 11.813 17.6399 -0.784926 11.7621 -41.2959 -6.19631 -32.2498 66.1614 26.479 43.3983 1.00063 -12.8202 2.13393e-008 1.56021e-007 -4.87132e-009 
-23.5771 64.0335 38.473 37.4391 25.4689 129.655 -41.2634 -20.0845 -2.07462 -14.5538 81.7045 2.95491 11.1172 -5.17477 2.81584 0.0462048 0.000533403 0.662642 3.79474 8.88337 -6.3792 -7.36278 3.03105 -1.3323 -16.9721 65.1615 38.4984 3.18055e-015 7.95139e-015 6.36111e-015 -88.8167 21.3963 -4.52088 -3.55552 57.8508 -39.4009 -20.9921 19.6713 13.9214 -1.95588e-008 -1.64207e-006 -1.94768e-006 89.549 19.9295 3.27848 1.51439 39.7568 62.5156 12.0352 17.4768 -0.226457 11.7818 -41.2831 -6.15159 -32.1177 66.1314 26.3276 43.4231 1.05529 -12.8455 2.13393e-008 1.56021e-007 -4.87132e-009 
-23.612 64.0304 38.4895 37.4513 25.4711 129.649 -41.2715 -20.0994 -2.09545 -14.5553 81.6758 2.96481 11.0982 -5.13041 2.8123 0.0462048 0.000533403 0.662642 3.79212 8.88276 -6.35808 -7.33603 3.05482 -1.31357 -17.0327 65.2224 38.4335 -1.59028e-015 -1.59028e-015 -0 -88.7769 21.275 -4.56329 -4.45736 57.2715 -38.6227 -20.9313 19.7836 14.068 -1.95588e-008 -1.64207e-006 -1.94768e-006 89.2345 19.7195 3.35178 1.0914 39.6654 63.0917 11.9425 17.2207 0.319664 11.7539 -41.2833 -6.09695 -31.996 66.1191 26.1846 43.4581 1.10087 -12.8708 2.13393e-008 1.56021e-007 -4.87131e-009 
-23.648 64.0264 38.5071 37.4708 25.4774 129.643 -41.2725 -20.1085 -2.09488 -14.4773 81.6497 2.89062 11.0804 -5.08036 2.80663 0.0462048 0.000533403 0.662642 3.78892 8.88105 -6.33525 -7.3098 3.07648 -1.29204 -17.1226 65.3009 38.4056 -1.59028e-015 -4.77083e-015 -6.36111e-015 -88.7341 21.1642 -4.59157 -5.09397 56.6626 -38.0615 -20.8697 19.7489 14.1957 -1.95588e-008 -1.64207e-006 -1.94768e-006 88.9083 19.5071 3.35087 0.404689 39.5237 63.7914 11.5474 16.9119 0.927628 11.7538 -41.2833 -6.02434 -31.8684 66.1063 26.0282 43.4893 1.14088 -12.8982 2.13393e-008 1.56021e-007 -4.87132e-009 
-23.682 64.0232 38.5258 37.4963 25.4885 129.643 -41.269 -20.1084 -2.08324 -14.3401 81.6247 2.757 11.0632 -5.02668 2.79984 0.0462048 0.000533403 0.662642 3.78578 8.8765 -6.31727 -7.28621 3.09703 -1.28067 -17.2498 65.3916 38.432 8.82781e-032 -1.59028e-015 3.18055e-015 -88.6907 21.0643 -4.60974 -5.72362 55.8758 -37.5246 -20.9099 19.8969 14.4209 -1.95588e-008 -1.64207e-006 -1.94768e-006 88.6031 19.2275 3.26834 -0.43901 39.3619 64.5227 10.8734 16.7165 1.55677 11.7518 -41.2837 -5.96054 -31.7479 66.0945 25.8759 43.524 1.17084 -12.9269 2.13393e-008 1.56021e-007 -4.87131e-009 
-23.7119 64.0254 38.5462 37.5212 25.5017 129.65 -41.267 -20.0967 -2.08014 -14.226 81.5963 2.64431 11.0461 -4.97554 2.7939 0.0462048 0.000533403 0.662642 3.78246 8.87046 -6.30296 -7.26606 3.11624 -1.27705 -17.3778 65.4889 38.4782 -6.36111e-015 -1.59028e-015 -0 -88.66 21.0105 -4.62476 -6.22345 55.243 -37.0739 -20.8633 19.9372 14.5719 -1.95588e-008 -1.64207e-006 -1.94768e-006 88.2717 18.8932 3.11159 -1.33868 39.1433 65.2127 9.9886 16.6217 2.21912 11.849 -41.1851 -5.89177 -31.5411 66.0262 25.6321 43.5466 1.22362 -12.9656 2.13393e-008 1.56021e-007 -4.87131e-009 
-23.7404 64.0264 38.564 37.5463 25.5112 129.662 -41.2639 -20.0775 -2.08136 -14.1118 81.5656 2.53147 11.0297 -4.92867 2.7875 0.0462048 0.000533403 0.662642 3.77824 8.86407 -6.28822 -7.24502 3.13489 -1.27206 -17.4787 65.5851 38.5156 1.59028e-015 0 6.36111e-015 -88.654 21.0114 -4.64844 -6.59402 54.7579 -36.7163 -20.7903 19.9374 14.6847 -1.95588e-008 -1.64207e-006 -1.94768e-006 87.8858 18.4516 2.90307 -2.13831 38.8644 65.7622 9.06399 16.6474 2.89223 11.8394 -41.1181 -5.82991 -31.3895 65.9894 25.4437 43.5867 1.25511 -12.9931 2.13393e-008 1.56021e-007 -4.87131e-009 
-23.7683 64.0269 38.5833 37.5763 25.5151 129.677 -41.253 -20.0578 -2.08842 -13.9936 81.5343 2.41466 11.013 -4.88169 2.78005 0.0462048 0.000533403 0.662642 3.77314 8.85937 -6.27304 -7.22283 3.15712 -1.26692 -17.528 65.6757 38.5219 -4.77083e-015 -7.95139e-015 -6.36111e-015 -88.6516 21.0749 -4.68154 -6.82148 54.3605 -36.5004 -20.7655 19.9844 14.779 -1.95588e-008 -1.64207e-006 -1.94768e-006 87.4393 17.9359 2.6814 -2.82166 38.5195 66.1169 8.18995 16.7607 3.538 11.8294 -41.1313 -5.77791 -31.3019 65.9744 25.3272 43.6203 1.26827 -13.013 2.13393e-008 1.56021e-007 -4.87131e-009 
